<svg width="175" height="56.32631971180118" viewBox="0 0 175 56.32631971180118" class="css-1j8o68f">
    <defs id="SvgjsDefs47308"></defs>
    <g id="SvgjsG47309" featurekey="v37d4h-0" transform="matrix(0.61217200756073,0,0,0.61217200756073,-2.2489075431318706,-2.1497327979480705)" fill="#39b507">
        <g xmlns="http://www.w3.org/2000/svg">
            <g>
                <path d="M16.315,16.076l-8.601,2.581c-2.998,0.899-4.699,4.06-3.8,7.059l2.601,8.666c0.085-0.219,0.179-0.436,0.293-0.647    L16.315,16.076z"></path>
                <path d="M8.512,41.033l15.138,50.448c0.899,2.998,4.06,4.7,7.059,3.801l27.452-8.238c2.999-0.898,4.701-4.06,3.801-7.06    L58.34,67.917L9.113,41.413C8.901,41.299,8.703,41.169,8.512,41.033z"></path>
            </g>
            <g>
                <path d="M90.535,36.74L30.078,4.19c-2.757-1.484-6.195-0.452-7.679,2.304L8.812,31.731c-1.484,2.757-0.452,6.194,2.305,7.679    l60.456,32.55c2.757,1.483,6.195,0.452,7.68-2.305l13.587-25.236C94.323,41.662,93.291,38.224,90.535,36.74z M26.636,24.296    c-0.742,1.379-2.461,1.895-3.839,1.152c-1.379-0.742-1.896-2.461-1.153-3.84c0.742-1.378,2.462-1.894,3.841-1.151    C26.862,21.198,27.377,22.918,26.636,24.296z M60.656,33.527c0.742-1.379,2.462-1.895,3.84-1.152    c1.379,0.741,1.894,2.461,1.151,3.839c-0.742,1.379-2.46,1.895-3.839,1.152C60.431,36.624,59.914,34.905,60.656,33.527z     M72.111,57.96c-0.742,1.379-2.46,1.895-3.839,1.152c-1.378-0.742-1.895-2.461-1.152-3.84c0.742-1.378,2.462-1.895,3.84-1.152    C72.339,54.862,72.854,56.582,72.111,57.96z M76.917,45.189l-19.478,5.845c-2.128,0.64-4.133,0.229-4.478-0.917l-0.073-0.244    c-0.343-1.145,1.104-2.593,3.232-3.23L75.6,40.798c2.129-0.64,4.133-0.227,4.477,0.918l0.073,0.243    C80.493,43.105,79.046,44.551,76.917,45.189z"></path>
            </g>
        </g>
    </g>
    <g id="SvgjsG47310" featurekey="UxBHKT-0" transform="matrix(1.1477247476577759,0,0,1.1477247476577759,74.42613763730105,13.116640878936899)" fill="#000000">
        <path d="M0.9324 19.99939454 l-0.4324 0 l0 -14.002 l0.4324 0 l0 14.002 z M1.6002 19.99939454 l-0.4324 0 l0 -14.002 l0.4324 0 l0 14.002 z M2.2664 19.99939454 l-0.4324 0 l0 -14.002 l0.4324 0 l0 14.002 z M2.9342 19.99939454 l-0.4324 0 l0 -14.002 l0.4324 0 l0 14.002 z M4.9012 5.997999999999999 c2.4856 0 4.506 2.022 4.5096 4.5078 c0 2.4856 -2.0222 4.5078 -4.5078 4.5078 l-1.3008 0 l0 4.9862 l-0.4324 0 l0 -14.002 l1.7314 0 z M3.6002 9.019 l0 2.966 l1.301 0 c0.8168 0 1.4828 -0.6642 1.4828 -1.483 s-0.666 -1.483 -1.4828 -1.483 l-1.301 0 z M3.6002 12.415199999999999 l0 0.21723 l1.301 0 c1.1738 0 2.1306 -0.955 2.1306 -2.1308 c0 -1.1756 -0.955 -2.1306 -2.1306 -2.1306 l-1.301 0 l0 0.2134 l1.301 0 c1.056 0 1.9152 0.8594 1.9152 1.9154 c0 1.0562 -0.8592 1.9154 -1.9152 1.9154 l-1.301 0 z M3.6002 13.0646 l0 0.21539 l1.301 0 c1.5326 0 2.7782 -1.2456 2.7782 -2.7784 c0 -1.5326 -1.2456 -2.7782 -2.7782 -2.7782 l-1.301 0 l0 0.2152 l1.301 0 c1.413 0 2.563 1.15 2.563 2.563 c0 1.4132 -1.15 2.563 -2.563 2.563 l-1.301 0 z M3.6002 13.712399999999999 l0 0.21521 l1.301 0 c1.8896 0 3.4278 -1.5364 3.4278 -3.426 s-1.5382 -3.4278 -3.4278 -3.4278 l-1.301 0 l0 0.21721 l1.301 0 c1.77 0 3.2106 1.4406 3.2106 3.2106 s-1.4406 3.2108 -3.2106 3.2108 l-1.301 0 z M4.9012 14.5808 c2.2464 0 4.0754 -1.8288 4.0754 -4.0754 s-1.829 -4.0754 -4.0754 -4.0754 l-1.301 0 l0 0.2134 l1.301 0 c2.1288 0 3.86 1.7314 3.86 3.8582 c0 2.127 -1.7312 3.8584 -3.86 3.8584 l-1.301 0 l0 0.2208 l1.301 0 z M16.6109 20.0011914 l-0.4324 0 l0 -13.982 l0.4324 0 l0 13.982 z M17.2769 20.0011914 l-0.4324 0 l0 -13.982 l0.4324 0 l0 13.982 z M17.9449 20.0011914 l-0.4324 0 l0 -13.982 l0.4324 0 l0 13.982 z M18.6109 20.0011914 l-0.4324 0 l0 -13.982 l0.4324 0 l0 13.982 z M24.3497 6.449999999999999 l-5.071 -0.000019531 l0 0.23539 l5.071 0 l0 0.4324 l-5.071 0 l0 0.23381 l5.071 0 l0 0.43221 l-5.071 0 l0 0.23561 l5.071 0 l0 0.4324 l-5.071 0 l0 0.23359 l5.071 0 l0 0.4324 l-5.071 0 l0 2.6864 l3.6892 0 l0 0.4324 l-3.6892 0 l0 0.23539 l3.6892 0 l0 0.43061 l-3.6892 0 l0 0.23539 l3.6892 0 l0 0.4324 l-3.6892 0 l0 0.23381 l3.6892 0 l0 0.4324 l-3.6892 0 l0 0.23539 l3.6892 0 l0 0.4324 l-3.6892 0 l0 1.9964 l5.071 0 l0 0.4324 l-5.071 0 l0 0.23359 l5.071 0 l0 0.4324 l-5.071 0 l0 0.23539 l5.071 0 l0 0.43061 l-5.071 0 l0 0.23561 l5.071 0 l0 0.4324 l-5.071 0 l0 0.23359 l5.071 0 l0 0.4324 l-5.5034 0 l0 -13.98 l5.5034 0 l0 0.43061 z M34.3644 12.8292 l0.39202 -0.18041 l3.4076 7.3506 l-0.4766 0 z M34.9734 12.5588 l0.39202 -0.18039 l3.5326 7.621 l-0.47641 0 z M35.5568 12.2422 l0.39362 -0.18219 l3.6836 7.9394 l-0.4766 0 z M31.54944 19.99941406 l-0.4324 0 l0 -13.971 l0.4324 0 l0 13.971 z M32.2154 19.99941406 l-0.4324 0 l0 -13.971 l0.4324 0 l0 13.971 z M32.8834 19.99941406 l-0.4324 0 l0 -13.971 l0.4324 0 l0 13.971 z M33.5494 19.99941406 l-0.4324 0 l0 -13.971 l0.4324 0 l0 13.971 z M37.785000000000004 14.428 l2.585 5.5732 l-0.4766 0 l-3.7498 -8.0884 l0.2208 -0.1618 c0.3956 -0.2778 0.6366 -0.7342 0.6366 -1.218 c0 -0.8188 -0.666 -1.483 -1.4828 -1.483 l-1.301 0 l0 4.0184 l3.2126 6.931 l-0.4766 0 l-2.736 -5.9026 l0 5.9026 l-0.4324 0 l0 -13.971 l1.7314 0 c2.4858 0 4.508 2.022 4.508 4.5078 c0 1.6062 -0.8556 3.082 -2.2392 3.8914 z M36.6828 12.0472 l0.092032 0.2024 c0.5428 -0.3992 0.87218 -1.0396 0.87218 -1.7166 c0 -1.1758 -0.9568 -2.1306 -2.1308 -2.1306 l-1.3008 0 l0 0.2152 l1.3008 0 c1.0562 0 1.9154 0.8592 1.9154 1.9154 c0 0.5942 -0.2796 1.1518 -0.7488 1.5142 z M36.9606 12.6488 l0.090196 0.19879 c0.7728 -0.5134 1.2438 -1.3836 1.2438 -2.3146 c0 -1.5328 -1.2456 -2.7784 -2.7784 -2.7784 l-1.3008 0 l0 0.21539 l1.3008 0 c1.4132 0 2.563 1.1498 2.563 2.563 c0 0.8426 -0.425 1.6412 -1.1186 2.1158 z M37.2366 13.241399999999999 l0.091992 0.19682 c1.0028 -0.6256 1.6174 -1.7222 1.6174 -2.907 c0 -1.8878 -1.5382 -3.426 -3.4278 -3.426 l-1.301 0 l0 0.2152 l1.301 0 c1.77 0 3.2106 1.4406 3.2106 3.2108 c0 1.1002 -0.5686 2.1214 -1.4922 2.7102 z M37.5108 13.8338 l0.093788 0.2006 c1.229 -0.736 1.989 -2.0608 1.989 -3.4978 c0 -2.2466 -1.829 -4.0754 -4.0754 -4.0754 l-1.301 0 l0 0.2134 l1.301 0 c2.1268 0 3.8582 1.7314 3.8582 3.8584 c0 1.3522 -0.712 2.6016 -1.8656 3.3008 z M47.5679 19.99939454 l-0.4324 0 l0 -13.958 l0.4324 0 l0 13.958 z M48.2357 19.99939454 l-0.4324 0 l0 -13.958 l0.4324 0 l0 13.958 z M48.9019 19.99939454 l-0.4324 0 l0 -13.958 l0.4324 0 l0 13.958 z M49.5697 19.99939454 l-0.4324 0 l0 -13.958 l0.4324 0 l0 13.958 z M59.179500000000004 6.042 l-5.5032 7.3726 l5.286 6.5852 l-0.55381 0 l-6.7248 -8.3754 l-0.14539 0.1932 l6.5686 8.1822 l-0.554 0 l-6.2814 -7.8234 l-0.14359 0.1932 l6.1234 7.6302 l-0.55381 0 l-5.8382 -7.2732 l-0.1434 0.195 l5.6816 7.0782 l-0.55381 0 l-5.3966 -6.7194 l-0.1434 0.1932 l5.2382 6.5262 l-0.55381 0 l-4.7526 -5.921 l0 5.921 l-0.4324 0 l0 -13.958 l0.4324 0 l0 6.8004 l5.0764 -6.8004 l0.5392 0 l-3.9008 5.2236 l0.15279 0.18961 l4.0404 -5.4132 l0.5392 0 l-4.3 5.7608 l0.151 0.18961 l4.4416 -5.9504 l0.5408 0 l-4.7028 6.2982 l0.1508 0.1876 l4.8446 -6.4858 l0.5392 0 l-5.104 6.8354 l0.1526 0.18961 l5.2438 -7.025 l0.5392 0 z M66.3664 19.99939454 l-0.4324 0 l0 -13.978 l0.4324 0 l0 13.978 z M67.0342 19.99939454 l-0.4324 0 l0 -13.978 l0.4324 0 l0 13.978 z M67.7004 19.99939454 l-0.4324 0 l0 -13.978 l0.4324 0 l0 13.978 z M68.3682 19.99939454 l-0.4324 0 l0 -13.978 l0.4324 0 l0 13.978 z M69.0342 19.99939454 l-0.4324 0 l0 -13.978 l0.4324 0 l0 13.978 z M76.22489999999999 19.99939454 l-0.4324 0 l0 -13.958 l0.4324 0 l0 13.958 z M76.89269999999999 19.99939454 l-0.4324 0 l0 -13.958 l0.4324 0 l0 13.958 z M77.5589 19.99939454 l-0.4324 0 l0 -13.958 l0.4324 0 l0 13.958 z M78.2267 19.99939454 l-0.4324 0 l0 -13.958 l0.4324 0 l0 13.958 z M87.19649999999999 6.042 l0.4324 0.000039062 l0 13.958 l-0.53359 0 l-8.2024 -13.207 l0 0.3826 l0.0038086 -0.0017969 l7.965 12.826 l-0.50779 0 l-7.461 -12.013 l0 0.37539 l7.2274 11.638 l-0.50779 0 l-6.7196 -10.819 l0 0.37539 l6.4858 10.443 l-0.50961 0 l-5.9762 -9.6246 l0 0.3752 l5.7444 9.2494 l-0.5098 0 l-5.2346 -8.4306 l0 8.4306 l-0.4324 0 l0 -9.126 l-0.0035938 -0.0074024 l0.0035938 -0.0017969 l0 -4.8226 l0.4748 0 l5.5934 9.0066 l0 -9.0066 l0.4324 0 l0 9.702 l0.2354 0.3772 l0 -10.079 l0.43061 0 l0 10.777 l0.2356 0.3772 l0 -11.154 l0.4324 0 l0 11.849 l0.2336 0.379 l0 -12.228 l0.4324 0 l0 12.924 l0.2354 0.3772 l0 -13.301 z"></path>
    </g>
</svg>